<mxfile host="app.diagrams.net" modified="2023-12-01T19:06:13.996Z" agent="Mozilla/5.0 (Windows NT 10.0; Win64; x64) AppleWebKit/537.36 (KHTML, like Gecko) Chrome/119.0.0.0 Safari/537.36 Edg/119.0.0.0" etag="4qGuPQmdhnAz7poZuSI4" version="22.1.5" type="github">
  <diagram name="Page-1" id="e3a06f82-3646-2815-327d-82caf3d4e204">
    <mxGraphModel dx="2673" dy="1443" grid="1" gridSize="10" guides="1" tooltips="1" connect="1" arrows="1" fold="1" page="1" pageScale="1.5" pageWidth="1169" pageHeight="826" background="none" math="0" shadow="0">
      <root>
        <mxCell id="0" style=";html=1;" />
        <mxCell id="1" style=";html=1;" parent="0" />
        <mxCell id="6a7d8f32e03d9370-61" value="渲染开发控制机器" style="whiteSpace=wrap;html=1;fillColor=#f8cecc;fontSize=14;strokeColor=none;verticalAlign=top;" parent="1" vertex="1">
          <mxGeometry x="1084" y="296" width="493" height="360" as="geometry" />
        </mxCell>
        <mxCell id="6a7d8f32e03d9370-59" value="Video Render" style="whiteSpace=wrap;html=1;fillColor=#EDEDED;fontSize=14;strokeColor=none;verticalAlign=top;" parent="1" vertex="1">
          <mxGeometry x="599" y="98" width="280" height="722" as="geometry" />
        </mxCell>
        <mxCell id="6a7d8f32e03d9370-58" value="Author devices" style="whiteSpace=wrap;html=1;fillColor=#dae8fc;fontSize=14;strokeColor=none;verticalAlign=top;" parent="1" vertex="1">
          <mxGeometry x="177" y="863" width="310" height="177" as="geometry" />
        </mxCell>
        <mxCell id="6a7d8f32e03d9370-57" value="Video Screen" style="whiteSpace=wrap;html=1;fillColor=#FFD470;gradientColor=none;fontSize=14;strokeColor=none;verticalAlign=top;" parent="1" vertex="1">
          <mxGeometry x="90" y="90" width="396" height="730" as="geometry" />
        </mxCell>
        <mxCell id="6a7d8f32e03d9370-3" value="……" style="verticalLabelPosition=bottom;aspect=fixed;html=1;verticalAlign=top;strokeColor=none;shape=mxgraph.citrix.desktop;fillColor=#66B2FF;gradientColor=#0066CC;fontSize=14;" parent="1" vertex="1">
          <mxGeometry x="694.5" y="507.99999999999994" width="89" height="98" as="geometry" />
        </mxCell>
        <mxCell id="6a7d8f32e03d9370-4" value="Node2" style="verticalLabelPosition=bottom;aspect=fixed;html=1;verticalAlign=top;strokeColor=none;shape=mxgraph.citrix.desktop;fillColor=#66B2FF;gradientColor=#0066CC;fontSize=14;" parent="1" vertex="1">
          <mxGeometry x="694.5" y="324.50000000000006" width="89" height="98" as="geometry" />
        </mxCell>
        <mxCell id="6a7d8f32e03d9370-5" value="Node1" style="verticalLabelPosition=bottom;aspect=fixed;html=1;verticalAlign=top;strokeColor=none;shape=mxgraph.citrix.desktop;fillColor=#66B2FF;gradientColor=#0066CC;fontSize=14;" parent="1" vertex="1">
          <mxGeometry x="694.5" y="142.00000000000006" width="89" height="98" as="geometry" />
        </mxCell>
        <mxCell id="6a7d8f32e03d9370-51" style="edgeStyle=none;rounded=0;html=1;startSize=10;endSize=10;jettySize=auto;orthogonalLoop=1;fontSize=14;endArrow=none;endFill=0;strokeWidth=2;" parent="1" source="6a7d8f32e03d9370-13" target="6a7d8f32e03d9370-15" edge="1">
          <mxGeometry relative="1" as="geometry" />
        </mxCell>
        <mxCell id="6a7d8f32e03d9370-52" style="edgeStyle=none;rounded=0;html=1;startSize=10;endSize=10;jettySize=auto;orthogonalLoop=1;fontSize=14;endArrow=none;endFill=0;strokeWidth=2;" parent="1" source="6a7d8f32e03d9370-13" target="6a7d8f32e03d9370-26" edge="1">
          <mxGeometry relative="1" as="geometry" />
        </mxCell>
        <mxCell id="6a7d8f32e03d9370-13" value="Ethernet Switch" style="verticalLabelPosition=bottom;aspect=fixed;html=1;verticalAlign=top;strokeColor=none;shape=mxgraph.citrix.router;fillColor=#66B2FF;gradientColor=#0066CC;fontSize=14;" parent="1" vertex="1">
          <mxGeometry x="973" y="587" width="55" height="36.5" as="geometry" />
        </mxCell>
        <mxCell id="6a7d8f32e03d9370-15" value="视频&amp;amp;工程同步服务器" style="verticalLabelPosition=top;aspect=fixed;html=1;verticalAlign=bottom;strokeColor=none;shape=mxgraph.citrix.cache_server;fillColor=#66B2FF;gradientColor=#0066CC;fontSize=14;labelPosition=center;align=center;" parent="1" vertex="1">
          <mxGeometry x="965" y="272" width="71" height="97.5" as="geometry" />
        </mxCell>
        <mxCell id="6a7d8f32e03d9370-44" style="edgeStyle=none;rounded=0;html=1;startSize=10;endSize=10;jettySize=auto;orthogonalLoop=1;fontSize=14;endArrow=none;endFill=0;strokeWidth=2;exitX=1.071;exitY=0.622;exitDx=0;exitDy=0;exitPerimeter=0;" parent="1" source="6a7d8f32e03d9370-5" target="6a7d8f32e03d9370-13" edge="1">
          <mxGeometry relative="1" as="geometry">
            <mxPoint x="820.0530726256984" y="249" as="sourcePoint" />
          </mxGeometry>
        </mxCell>
        <mxCell id="6a7d8f32e03d9370-45" style="edgeStyle=none;rounded=0;html=1;startSize=10;endSize=10;jettySize=auto;orthogonalLoop=1;fontSize=14;endArrow=none;endFill=0;strokeWidth=2;exitX=1.025;exitY=0.703;exitDx=0;exitDy=0;exitPerimeter=0;" parent="1" source="6a7d8f32e03d9370-4" target="6a7d8f32e03d9370-13" edge="1">
          <mxGeometry relative="1" as="geometry">
            <mxPoint x="840" y="420" as="sourcePoint" />
          </mxGeometry>
        </mxCell>
        <mxCell id="6a7d8f32e03d9370-46" style="edgeStyle=none;rounded=0;html=1;startSize=10;endSize=10;jettySize=auto;orthogonalLoop=1;fontSize=14;endArrow=none;endFill=0;strokeWidth=2;exitX=0.965;exitY=0.637;exitDx=0;exitDy=0;exitPerimeter=0;" parent="1" source="6a7d8f32e03d9370-3" target="6a7d8f32e03d9370-13" edge="1">
          <mxGeometry relative="1" as="geometry">
            <mxPoint x="834" y="544" as="sourcePoint" />
          </mxGeometry>
        </mxCell>
        <mxCell id="6a7d8f32e03d9370-47" style="edgeStyle=none;rounded=0;html=1;startSize=10;endSize=10;jettySize=auto;orthogonalLoop=1;fontSize=14;endArrow=none;endFill=0;strokeWidth=2;exitX=1.056;exitY=0.702;exitDx=0;exitDy=0;exitPerimeter=0;" parent="1" source="PdP1-Zz2ZsPXyc-NsxAn-2" target="6a7d8f32e03d9370-13" edge="1">
          <mxGeometry relative="1" as="geometry">
            <mxPoint x="834" y="678.9099264705883" as="sourcePoint" />
          </mxGeometry>
        </mxCell>
        <mxCell id="6a7d8f32e03d9370-53" style="edgeStyle=none;rounded=0;html=1;startSize=10;endSize=10;jettySize=auto;orthogonalLoop=1;fontSize=14;endArrow=none;endFill=0;strokeWidth=2;" parent="1" source="6a7d8f32e03d9370-26" target="6a7d8f32e03d9370-29" edge="1">
          <mxGeometry relative="1" as="geometry" />
        </mxCell>
        <mxCell id="6a7d8f32e03d9370-54" style="edgeStyle=none;rounded=0;html=1;startSize=10;endSize=10;jettySize=auto;orthogonalLoop=1;fontSize=14;endArrow=none;endFill=0;strokeWidth=2;" parent="1" source="6a7d8f32e03d9370-26" target="6a7d8f32e03d9370-28" edge="1">
          <mxGeometry relative="1" as="geometry" />
        </mxCell>
        <mxCell id="6a7d8f32e03d9370-55" style="edgeStyle=none;rounded=0;html=1;startSize=10;endSize=10;jettySize=auto;orthogonalLoop=1;fontSize=14;endArrow=none;endFill=0;strokeWidth=2;" parent="1" source="6a7d8f32e03d9370-26" target="6a7d8f32e03d9370-27" edge="1">
          <mxGeometry relative="1" as="geometry" />
        </mxCell>
        <mxCell id="6a7d8f32e03d9370-26" value="路由器" style="verticalLabelPosition=bottom;aspect=fixed;html=1;verticalAlign=top;strokeColor=none;shape=mxgraph.citrix.switch;fillColor=#66B2FF;gradientColor=#0066CC;fontSize=14;" parent="1" vertex="1">
          <mxGeometry x="1175" y="508" width="92" height="41.5" as="geometry" />
        </mxCell>
        <mxCell id="6a7d8f32e03d9370-27" value="Computer 3" style="verticalLabelPosition=top;aspect=fixed;html=1;verticalAlign=bottom;strokeColor=none;shape=mxgraph.citrix.thin_client;fillColor=#66B2FF;gradientColor=#0066CC;fontSize=14;labelPosition=center;align=center;" parent="1" vertex="1">
          <mxGeometry x="1437" y="498" width="73" height="73" as="geometry" />
        </mxCell>
        <mxCell id="6a7d8f32e03d9370-28" value="Computer 2" style="verticalLabelPosition=top;aspect=fixed;html=1;verticalAlign=bottom;strokeColor=none;shape=mxgraph.citrix.thin_client;fillColor=#66B2FF;gradientColor=#0066CC;fontSize=14;labelPosition=center;align=center;" parent="1" vertex="1">
          <mxGeometry x="1359" y="374" width="71" height="71" as="geometry" />
        </mxCell>
        <mxCell id="6a7d8f32e03d9370-29" value="Computer 1" style="verticalLabelPosition=top;aspect=fixed;html=1;verticalAlign=bottom;strokeColor=none;shape=mxgraph.citrix.thin_client;fillColor=#66B2FF;gradientColor=#0066CC;fontSize=14;labelPosition=center;align=center;" parent="1" vertex="1">
          <mxGeometry x="1203" y="338" width="71" height="71" as="geometry" />
        </mxCell>
        <mxCell id="6a7d8f32e03d9370-62" value="iQiyi&amp;nbsp;Virtual&amp;nbsp;Production 现场设备环境&lt;br&gt;&lt;div style=&quot;font-size: medium; font-weight: 400; text-align: start;&quot; data-hash=&quot;ae6b22343b30d44194883fca83e75c79&quot; data-version=&quot;3.0.0&quot;&gt;&lt;/div&gt;" style="text;strokeColor=none;fillColor=none;html=1;fontSize=24;fontStyle=1;verticalAlign=middle;align=center;" parent="1" vertex="1">
          <mxGeometry x="499" y="30" width="861" height="40" as="geometry" />
        </mxCell>
        <mxCell id="PdP1-Zz2ZsPXyc-NsxAn-2" value="Node12" style="verticalLabelPosition=bottom;aspect=fixed;html=1;verticalAlign=top;strokeColor=none;shape=mxgraph.citrix.desktop;fillColor=#66B2FF;gradientColor=#0066CC;fontSize=14;" vertex="1" parent="1">
          <mxGeometry x="694.5" y="680" width="89" height="98" as="geometry" />
        </mxCell>
        <mxCell id="PdP1-Zz2ZsPXyc-NsxAn-25" style="edgeStyle=orthogonalEdgeStyle;rounded=0;orthogonalLoop=1;jettySize=auto;html=1;entryX=1;entryY=0.5;entryDx=0;entryDy=0;" edge="1" parent="1" source="PdP1-Zz2ZsPXyc-NsxAn-4" target="PdP1-Zz2ZsPXyc-NsxAn-24">
          <mxGeometry relative="1" as="geometry" />
        </mxCell>
        <mxCell id="PdP1-Zz2ZsPXyc-NsxAn-4" value="LED Control 1" style="shape=mxgraph.rack.ibm.ibm_x3630_m4;html=1;labelPosition=center;align=center;spacingLeft=15;dashed=0;shadow=0;fillColor=#ffffff;verticalLabelPosition=bottom;verticalAlign=top;" vertex="1" parent="1">
          <mxGeometry x="305.5" y="176" width="161" height="30" as="geometry" />
        </mxCell>
        <mxCell id="PdP1-Zz2ZsPXyc-NsxAn-31" style="edgeStyle=orthogonalEdgeStyle;rounded=0;orthogonalLoop=1;jettySize=auto;html=1;entryX=1;entryY=0.5;entryDx=0;entryDy=0;" edge="1" parent="1" source="PdP1-Zz2ZsPXyc-NsxAn-6" target="PdP1-Zz2ZsPXyc-NsxAn-26">
          <mxGeometry relative="1" as="geometry" />
        </mxCell>
        <mxCell id="PdP1-Zz2ZsPXyc-NsxAn-6" value="LED Control 2" style="shape=mxgraph.rack.ibm.ibm_x3630_m4;html=1;labelPosition=center;align=center;spacingLeft=15;dashed=0;shadow=0;fillColor=#ffffff;verticalLabelPosition=bottom;verticalAlign=top;" vertex="1" parent="1">
          <mxGeometry x="300" y="358.5" width="161" height="30" as="geometry" />
        </mxCell>
        <mxCell id="PdP1-Zz2ZsPXyc-NsxAn-30" style="edgeStyle=orthogonalEdgeStyle;rounded=0;orthogonalLoop=1;jettySize=auto;html=1;entryX=1;entryY=0.5;entryDx=0;entryDy=0;" edge="1" parent="1" source="PdP1-Zz2ZsPXyc-NsxAn-7" target="PdP1-Zz2ZsPXyc-NsxAn-27">
          <mxGeometry relative="1" as="geometry" />
        </mxCell>
        <mxCell id="PdP1-Zz2ZsPXyc-NsxAn-7" value="LED Control ……" style="shape=mxgraph.rack.ibm.ibm_x3630_m4;html=1;labelPosition=center;align=center;spacingLeft=15;dashed=0;shadow=0;fillColor=#ffffff;verticalLabelPosition=bottom;verticalAlign=top;" vertex="1" parent="1">
          <mxGeometry x="300" y="542" width="161" height="30" as="geometry" />
        </mxCell>
        <mxCell id="PdP1-Zz2ZsPXyc-NsxAn-32" style="edgeStyle=orthogonalEdgeStyle;rounded=0;orthogonalLoop=1;jettySize=auto;html=1;entryX=1;entryY=0.5;entryDx=0;entryDy=0;" edge="1" parent="1" source="PdP1-Zz2ZsPXyc-NsxAn-8" target="PdP1-Zz2ZsPXyc-NsxAn-28">
          <mxGeometry relative="1" as="geometry" />
        </mxCell>
        <mxCell id="PdP1-Zz2ZsPXyc-NsxAn-8" value="LED Control 12" style="shape=mxgraph.rack.ibm.ibm_x3630_m4;html=1;labelPosition=center;align=center;spacingLeft=15;dashed=0;shadow=0;fillColor=#ffffff;verticalLabelPosition=bottom;verticalAlign=top;" vertex="1" parent="1">
          <mxGeometry x="305.5" y="714" width="161" height="30" as="geometry" />
        </mxCell>
        <mxCell id="PdP1-Zz2ZsPXyc-NsxAn-9" style="edgeStyle=orthogonalEdgeStyle;rounded=0;orthogonalLoop=1;jettySize=auto;html=1;exitX=0.5;exitY=1;exitDx=0;exitDy=0;" edge="1" parent="1" source="6a7d8f32e03d9370-59" target="6a7d8f32e03d9370-59">
          <mxGeometry relative="1" as="geometry" />
        </mxCell>
        <mxCell id="PdP1-Zz2ZsPXyc-NsxAn-12" style="edgeStyle=orthogonalEdgeStyle;rounded=0;orthogonalLoop=1;jettySize=auto;html=1;entryX=1.008;entryY=0.496;entryDx=0;entryDy=0;entryPerimeter=0;" edge="1" parent="1" source="6a7d8f32e03d9370-5" target="PdP1-Zz2ZsPXyc-NsxAn-4">
          <mxGeometry relative="1" as="geometry" />
        </mxCell>
        <mxCell id="PdP1-Zz2ZsPXyc-NsxAn-13" value="DP 1.2" style="edgeLabel;html=1;align=center;verticalAlign=middle;resizable=0;points=[];" vertex="1" connectable="0" parent="PdP1-Zz2ZsPXyc-NsxAn-12">
          <mxGeometry x="0.2199" y="-2" relative="1" as="geometry">
            <mxPoint as="offset" />
          </mxGeometry>
        </mxCell>
        <mxCell id="PdP1-Zz2ZsPXyc-NsxAn-14" style="edgeStyle=orthogonalEdgeStyle;rounded=0;orthogonalLoop=1;jettySize=auto;html=1;entryX=0.999;entryY=0.522;entryDx=0;entryDy=0;entryPerimeter=0;" edge="1" parent="1" source="6a7d8f32e03d9370-4" target="PdP1-Zz2ZsPXyc-NsxAn-6">
          <mxGeometry relative="1" as="geometry" />
        </mxCell>
        <mxCell id="PdP1-Zz2ZsPXyc-NsxAn-17" value="DP1.2" style="edgeLabel;html=1;align=center;verticalAlign=middle;resizable=0;points=[];" vertex="1" connectable="0" parent="PdP1-Zz2ZsPXyc-NsxAn-14">
          <mxGeometry x="0.2203" y="-1" relative="1" as="geometry">
            <mxPoint x="1" as="offset" />
          </mxGeometry>
        </mxCell>
        <mxCell id="PdP1-Zz2ZsPXyc-NsxAn-15" style="edgeStyle=orthogonalEdgeStyle;rounded=0;orthogonalLoop=1;jettySize=auto;html=1;entryX=1.003;entryY=0.503;entryDx=0;entryDy=0;entryPerimeter=0;" edge="1" parent="1" source="6a7d8f32e03d9370-3" target="PdP1-Zz2ZsPXyc-NsxAn-7">
          <mxGeometry relative="1" as="geometry" />
        </mxCell>
        <mxCell id="PdP1-Zz2ZsPXyc-NsxAn-18" value="DP1.2" style="edgeLabel;html=1;align=center;verticalAlign=middle;resizable=0;points=[];" vertex="1" connectable="0" parent="PdP1-Zz2ZsPXyc-NsxAn-15">
          <mxGeometry x="0.221" y="-4" relative="1" as="geometry">
            <mxPoint x="-1" as="offset" />
          </mxGeometry>
        </mxCell>
        <mxCell id="PdP1-Zz2ZsPXyc-NsxAn-16" style="edgeStyle=orthogonalEdgeStyle;rounded=0;orthogonalLoop=1;jettySize=auto;html=1;entryX=0.992;entryY=0.479;entryDx=0;entryDy=0;entryPerimeter=0;" edge="1" parent="1" source="PdP1-Zz2ZsPXyc-NsxAn-2" target="PdP1-Zz2ZsPXyc-NsxAn-8">
          <mxGeometry relative="1" as="geometry" />
        </mxCell>
        <mxCell id="PdP1-Zz2ZsPXyc-NsxAn-19" value="DP1.2" style="edgeLabel;html=1;align=center;verticalAlign=middle;resizable=0;points=[];" vertex="1" connectable="0" parent="PdP1-Zz2ZsPXyc-NsxAn-16">
          <mxGeometry x="0.2346" y="-3" relative="1" as="geometry">
            <mxPoint as="offset" />
          </mxGeometry>
        </mxCell>
        <mxCell id="PdP1-Zz2ZsPXyc-NsxAn-24" value="" style="shape=image;html=1;verticalAlign=top;verticalLabelPosition=bottom;labelBackgroundColor=#ffffff;imageAspect=0;aspect=fixed;image=https://cdn4.iconfinder.com/data/icons/48-bubbles/48/24.TV-128.png" vertex="1" parent="1">
          <mxGeometry x="110" y="128" width="128" height="128" as="geometry" />
        </mxCell>
        <mxCell id="PdP1-Zz2ZsPXyc-NsxAn-26" value="" style="shape=image;html=1;verticalAlign=top;verticalLabelPosition=bottom;labelBackgroundColor=#ffffff;imageAspect=0;aspect=fixed;image=https://cdn4.iconfinder.com/data/icons/48-bubbles/48/24.TV-128.png" vertex="1" parent="1">
          <mxGeometry x="110" y="309.5" width="128" height="128" as="geometry" />
        </mxCell>
        <mxCell id="PdP1-Zz2ZsPXyc-NsxAn-27" value="" style="shape=image;html=1;verticalAlign=top;verticalLabelPosition=bottom;labelBackgroundColor=#ffffff;imageAspect=0;aspect=fixed;image=https://cdn4.iconfinder.com/data/icons/48-bubbles/48/24.TV-128.png" vertex="1" parent="1">
          <mxGeometry x="110" y="493" width="128" height="128" as="geometry" />
        </mxCell>
        <mxCell id="PdP1-Zz2ZsPXyc-NsxAn-28" value="" style="shape=image;html=1;verticalAlign=top;verticalLabelPosition=bottom;labelBackgroundColor=#ffffff;imageAspect=0;aspect=fixed;image=https://cdn4.iconfinder.com/data/icons/48-bubbles/48/24.TV-128.png" vertex="1" parent="1">
          <mxGeometry x="110" y="665" width="128" height="128" as="geometry" />
        </mxCell>
        <mxCell id="PdP1-Zz2ZsPXyc-NsxAn-33" value="Genlock" style="html=1;verticalLabelPosition=bottom;strokeWidth=2;strokeColor=#0080F0;fillColor=strokeColor;shadow=0;dashed=0;shape=mxgraph.ios7.icons.orientation_lock;pointerEvents=1" vertex="1" parent="1">
          <mxGeometry x="216" y="910" width="23.099999999999998" height="21" as="geometry" />
        </mxCell>
        <mxCell id="PdP1-Zz2ZsPXyc-NsxAn-35" value="" style="image;points=[];aspect=fixed;html=1;align=center;shadow=0;dashed=0;image=img/lib/allied_telesis/switch/Modular_Switch_SXx908GEN2.svg;" vertex="1" parent="1">
          <mxGeometry x="720" y="730" width="78" height="66.60000000000001" as="geometry" />
        </mxCell>
        <mxCell id="PdP1-Zz2ZsPXyc-NsxAn-36" value="Video Switch" style="image;points=[];aspect=fixed;html=1;align=center;shadow=0;dashed=0;image=img/lib/allied_telesis/switch/Modular_Switch_SXx908GEN2.svg;" vertex="1" parent="1">
          <mxGeometry x="370" y="910" width="78" height="66.60000000000001" as="geometry" />
        </mxCell>
      </root>
    </mxGraphModel>
  </diagram>
</mxfile>
